<svg width="23" height="14" viewBox="0 0 23 14" fill="none" xmlns="http://www.w3.org/2000/svg">
<path d="M22.0417 7H0.958333C0.429331 7 0 6.776 0 6.5C0 6.224 0.429331 6 0.958333 6H22.0417C22.5707 6 23 6.224 23 6.5C23 6.776 22.5707 7 22.0417 7Z" fill="#555555"/>
<path d="M22.0417 1H0.958333C0.429331 1 0 0.776001 0 0.5C0 0.223999 0.429331 0 0.958333 0H22.0417C22.5707 0 23 0.223999 23 0.5C23 0.776001 22.5707 1 22.0417 1Z" fill="#555555"/>
<path d="M22.0417 14H0.958333C0.429331 14 0 13.776 0 13.5C0 13.224 0.429331 13 0.958333 13H22.0417C22.5707 13 23 13.224 23 13.5C23 13.776 22.5707 14 22.0417 14Z" fill="#555555"/>
</svg>
