<svg width="22" height="21" fill="none" xmlns="http://www.w3.org/2000/svg"><g clip-path="url(#a)"><path d="m.518 19.93 5.104-5.104a8.918 8.918 0 0 1-2.198-5.871C3.424 4.015 7.442 0 12.378 0c4.94 0 8.954 4.019 8.954 8.955 0 4.935-4.018 8.954-8.954 8.954a8.918 8.918 0 0 1-5.872-2.198l-5.103 5.103A.633.633 0 0 1 .961 21a.63.63 0 0 1-.442-1.071zM20.08 8.955c0-4.247-3.454-7.697-7.696-7.697-4.247 0-7.697 3.455-7.697 7.697s3.45 7.701 7.697 7.701c4.242 0 7.697-3.455 7.697-7.701z" fill="#555"/></g><defs><clipPath id="a"><path fill="#fff" transform="matrix(-1 0 0 1 21.334 0)" d="M0 0h21v21H0z"/></clipPath></defs></svg>