<svg width="25" height="22" fill="none" xmlns="http://www.w3.org/2000/svg"><path d="M23.315 5.003h-5.128V.373A.384.384 0 0 0 17.793 0H8.202a.384.384 0 0 0-.394.373v4.63H2.681a.387.387 0 0 0-.392.345L.999 21.6a.36.36 0 0 0 .103.28c.074.076.18.12.29.12h23.213c.11 0 .215-.044.288-.12a.36.36 0 0 0 .104-.28l-1.29-16.252a.387.387 0 0 0-.392-.345zm-5.522 2.364c.2 0 .36.152.36.34a.352.352 0 0 1-.36.34.352.352 0 0 1-.36-.34c0-.188.161-.34.36-.34zM8.595.747H17.4v4.257H8.595V.746zm-.393 6.62c.199 0 .36.152.36.34a.352.352 0 0 1-.36.34.352.352 0 0 1-.361-.34c0-.188.162-.34.36-.34zM1.815 21.255 3.045 5.75h4.763v.941c-.438.153-.754.55-.754 1.016 0 .6.515 1.087 1.148 1.087.632 0 1.147-.487 1.147-1.087 0-.467-.315-.863-.754-1.016V5.75H17.4v.941c-.439.153-.754.55-.754 1.016 0 .6.515 1.087 1.147 1.087.633 0 1.148-.487 1.148-1.087 0-.467-.316-.863-.754-1.016V5.75h4.763l1.23 15.505H1.816z" fill="#555"/></svg>