<svg width="26" height="25" fill="none" xmlns="http://www.w3.org/2000/svg"><g clip-path="url(#a)"><rect x=".482" width="24.736" height="24.736" rx="12.368" fill="#fff"/><path d="M10.379 12.5a2.604 2.604 0 1 1 5.208 0 2.604 2.604 0 0 1-5.208 0zm-1.408 0a4.012 4.012 0 1 0 8.023 0 4.012 4.012 0 0 0-8.023 0zm7.244-4.17a.938.938 0 1 0 .938-.938.938.938 0 0 0-.938.937zM9.826 18.86c-.762-.035-1.176-.162-1.45-.27a2.429 2.429 0 0 1-.9-.584 2.411 2.411 0 0 1-.584-.898c-.107-.275-.234-.69-.268-1.45-.038-.824-.046-1.072-.046-3.158s.008-2.333.046-3.157c.034-.762.162-1.175.268-1.45.142-.366.311-.626.585-.9.273-.273.533-.443.898-.584.275-.107.69-.234 1.451-.269.824-.038 1.071-.045 3.156-.045 2.086 0 2.333.008 3.158.045.761.035 1.175.163 1.45.27.365.14.625.31.899.583.274.274.442.534.584.9.108.274.235.688.27 1.45.037.824.045 1.07.045 3.157 0 2.086-.008 2.333-.046 3.157-.034.762-.162 1.176-.269 1.451a2.42 2.42 0 0 1-.584.898 2.427 2.427 0 0 1-.899.584c-.275.108-.689.235-1.45.27-.824.037-1.071.045-3.158.045-2.086 0-2.333-.008-3.156-.046zM9.761 4.734c-.831.038-1.4.17-1.896.363-.514.2-.949.467-1.384.9-.435.435-.701.87-.9 1.385-.194.496-.326 1.064-.364 1.896-.038.833-.047 1.1-.047 3.221 0 2.122.009 2.388.047 3.22.038.833.17 1.4.363 1.897.2.514.466.95.901 1.384.435.434.87.701 1.384.901.497.193 1.065.325 1.896.363.834.038 1.1.047 3.221.047 2.122 0 2.388-.008 3.221-.047.832-.038 1.4-.17 1.897-.363.513-.2.949-.467 1.384-.9.434-.435.7-.871.9-1.385.194-.496.326-1.064.364-1.896.037-.834.046-1.1.046-3.221 0-2.122-.009-2.388-.046-3.22-.038-.833-.17-1.4-.363-1.897-.2-.514-.467-.95-.901-1.384a3.822 3.822 0 0 0-1.384-.901c-.497-.193-1.065-.326-1.896-.363-.833-.038-1.1-.048-3.221-.048-2.122 0-2.388.01-3.222.048z" fill="#555"/></g><defs><clipPath id="a"><path fill="#fff" transform="translate(.482)" d="M0 0h25v25H0z"/></clipPath></defs></svg>