<svg width="25" height="25" fill="none" xmlns="http://www.w3.org/2000/svg"><g clip-path="url(#a)"><rect width="24.405" height="24.405" rx="12.202" fill="#fff"/><path fill-rule="evenodd" clip-rule="evenodd" d="M20.45 8.612c.116-.386 0-.67-.551-.67h-1.823c-.464 0-.678.245-.794.515 0 0-.927 2.26-2.24 3.728-.425.425-.619.56-.85.56-.116 0-.284-.135-.284-.52V8.611c0-.464-.135-.67-.521-.67h-2.865c-.29 0-.464.215-.464.419 0 .44.656.54.724 1.777v2.685c0 .589-.106.695-.338.695-.618 0-2.122-2.27-3.013-4.867-.175-.505-.35-.71-.817-.71H4.791c-.52 0-.625.246-.625.516 0 .483.618 2.879 2.878 6.047 1.507 2.163 3.63 3.336 5.561 3.336 1.16 0 1.303-.26 1.303-.71v-1.634c0-.521.11-.625.476-.625.271 0 .735.135 1.817 1.178 1.236 1.236 1.44 1.79 2.135 1.79h1.823c.521 0 .782-.26.632-.774-.165-.512-.755-1.255-1.538-2.137-.425-.502-1.063-1.043-1.256-1.313-.27-.348-.193-.502 0-.811 0 0 2.221-3.13 2.453-4.192z" fill="#555"/></g><defs><clipPath id="a"><path fill="#fff" d="M0 0h25v25H0z"/></clipPath></defs></svg>