<svg width="26" height="25" fill="none" xmlns="http://www.w3.org/2000/svg"><g clip-path="url(#a)"><rect x=".873" width="24.736" height="24.736" rx="12.368" fill="#fff"/><path d="M18.974 6.881a7.096 7.096 0 0 0-5.085-2.128c-4.02 0-7.252 3.271-7.213 7.252 0 1.261.355 2.483.946 3.587l-1.024 3.744 3.823-.985a7.038 7.038 0 0 0 3.429.867c3.98 0 7.213-3.272 7.213-7.252a7.153 7.153 0 0 0-2.09-5.085zm-5.085 11.115a5.856 5.856 0 0 1-3.035-.828l-.236-.118-2.286.591.591-2.246-.158-.237C7.031 12.36 7.86 8.655 10.697 6.92c2.838-1.734 6.503-.906 8.237 1.932 1.735 2.838.907 6.503-1.93 8.237a5.747 5.747 0 0 1-3.115.907zm3.469-4.375-.434-.197s-.63-.276-1.024-.473c-.04 0-.08-.04-.119-.04-.118 0-.197.04-.276.08 0 0-.04.039-.59.67a.217.217 0 0 1-.198.118h-.04a.299.299 0 0 1-.157-.08l-.197-.078c-.434-.197-.828-.434-1.143-.749-.079-.079-.197-.158-.276-.236-.276-.276-.552-.592-.749-.946l-.04-.08c-.039-.039-.039-.078-.078-.157 0-.079 0-.158.04-.197 0 0 .157-.197.275-.315.079-.08.118-.197.197-.276.08-.118.119-.276.08-.394-.04-.197-.513-1.262-.632-1.498a.456.456 0 0 0-.275-.197h-.434c-.079 0-.158.04-.236.04l-.04.039c-.079.04-.158.118-.236.157-.08.08-.119.158-.197.237a2.01 2.01 0 0 0-.434 1.222c0 .315.079.63.197.906l.04.118a6.566 6.566 0 0 0 1.458 2.01l.157.158c.119.119.237.197.316.316a7.044 7.044 0 0 0 2.838 1.497c.118.04.276.04.394.08h.394c.197 0 .433-.08.591-.159.118-.078.197-.078.276-.157l.079-.079c.079-.079.157-.118.236-.197.08-.079.158-.158.197-.237.08-.157.119-.354.158-.551V13.7s-.04-.04-.118-.08z" fill="#555"/></g><defs><clipPath id="a"><path fill="#fff" transform="translate(.873)" d="M0 0h25v25H0z"/></clipPath></defs></svg>